<svg id="Ebene_1" data-name="Ebene 1" xmlns="http://www.w3.org/2000/svg" viewBox="0 0 471.84 488.89"><defs><style>.cls-1{fill:#e30613;}.cls-1,.cls-10,.cls-11,.cls-12,.cls-2,.cls-3,.cls-4,.cls-5,.cls-6,.cls-7,.cls-8,.cls-9{stroke:#1d1d1b;}.cls-1,.cls-10,.cls-11,.cls-12,.cls-13,.cls-14,.cls-15,.cls-16,.cls-17,.cls-18,.cls-2,.cls-3,.cls-4,.cls-5,.cls-6,.cls-7,.cls-8,.cls-9{stroke-miterlimit:10;}.cls-1,.cls-10,.cls-11,.cls-12,.cls-13,.cls-14,.cls-2,.cls-3,.cls-4,.cls-5,.cls-6,.cls-7,.cls-8,.cls-9{stroke-width:16px;}.cls-2{fill:#e94e1b;}.cls-3{fill:#f9b233;}.cls-4{fill:#951b81;}.cls-5{fill:#e71d73;}.cls-6{fill:#d60b52;}.cls-7{fill:#2d2e83;}.cls-8{fill:#29235c;}.cls-9{fill:#662483;}.cls-10{fill:#fcea10;}.cls-11{fill:#3aaa35;}.cls-12{fill:#36a9e1;}.cls-13{fill:#c0ab91;}.cls-13,.cls-14{stroke:#1d1e1b;}.cls-14{fill:#fff;}.cls-15{fill:#f39200;}.cls-15,.cls-16,.cls-17,.cls-18{stroke:#1d1f1c;stroke-width:12px;}.cls-16{fill:#7dcdeb;}.cls-17{fill:#0668ae;}.cls-18{fill:#59595a;}</style></defs><path class="cls-1" d="M236.09,257.62V33.86A230.74,230.74,0,0,1,350,63.84Z"/><path class="cls-2" d="M236.09,257.62,350,63.84A227,227,0,0,1,397.13,99.4a224,224,0,0,1,36.2,46.34Z"/><path class="cls-3" d="M236.09,257.62,433.33,145.74a220.8,220.8,0,0,1,30.51,111.88Z"/><path class="cls-4" d="M235.75,257.62H8A220.8,220.8,0,0,1,38.51,145.74Z"/><path class="cls-5" d="M235.75,257.62,38.51,145.74A224,224,0,0,1,74.71,99.4a227,227,0,0,1,47.16-35.56Z"/><path class="cls-6" d="M235.75,257.62,121.87,63.84a230.74,230.74,0,0,1,113.88-30Z"/><path class="cls-7" d="M235.75,257.13V480.89a231,231,0,0,1-113.88-30Z"/><path class="cls-8" d="M235.75,257.13,121.87,450.91a227.37,227.37,0,0,1-47.16-35.56A224.21,224.21,0,0,1,38.51,369Z"/><path class="cls-9" d="M235.75,257.13,38.51,369A220.8,220.8,0,0,1,8,257.13Z"/><path class="cls-10" d="M236.09,257.13H463.84A220.8,220.8,0,0,1,433.33,369Z"/><path class="cls-11" d="M236.09,257.13,433.33,369a224.21,224.21,0,0,1-36.2,46.34A227.37,227.37,0,0,1,350,450.91Z"/><path class="cls-12" d="M236.09,257.13,350,450.91a231,231,0,0,1-113.88,30Z"/><ellipse class="cls-13" cx="235.75" cy="258.02" rx="126.9" ry="124.68"/><ellipse class="cls-14" cx="235.75" cy="258.02" rx="77.05" ry="75.7"/><path class="cls-15" d="M429.16,179.44c2.61,0,4.74-3.19,4.75-7.16V85.5H395.23v86.13c0,4,1.19,7.18,2.66,7.18l-.16-1.92c2.61,0,4.73,3.21,4.73,7.18v8.35c0,7.36,5.46,13.42,12.09,13.42s12.09-6.06,12.09-13.42v-7.73c0-4,1.22-7.18,2.69-7.17"/><rect class="cls-16" x="395.23" y="62.89" width="38.68" height="40.05"/><rect class="cls-17" x="381.99" y="38.44" width="65.16" height="24.45" rx="7"/><path class="cls-18" d="M414.72,6.19a19.16,19.16,0,0,0-19.34,19V38.27l-.1.17,38.48-.14.1-.17V25A19.16,19.16,0,0,0,414.52,6"/></svg>